<svg width="113" height="98" viewBox="0 0 113 98" fill="none" xmlns="http://www.w3.org/2000/svg">
<path d="M2 10.5209C2 8.26102 3.04137 6.09369 4.89503 4.49571C6.74868 2.89773 9.26278 2 11.8842 2H87.6634C93.7802 2 99.6464 4.09472 103.972 7.82333C108.297 11.5519 110.727 16.609 110.727 21.8821V75.8478C110.727 81.1209 108.297 86.178 103.972 89.9066C99.6464 93.6352 93.7802 95.7299 87.6634 95.7299H25.0632C18.9465 95.7299 13.0803 93.6352 8.75507 89.9066C4.42987 86.178 2 81.1209 2 75.8478V10.5209Z" stroke="white" stroke-width="4" stroke-linecap="round" stroke-linejoin="round"/>
<path d="M38.242 78.6882H31.6525C29.9048 78.6882 28.2288 78.0897 26.993 77.0244C25.7572 75.959 25.063 74.5141 25.063 73.0076V55.9658C25.063 54.4592 25.7572 53.0143 26.993 51.949C28.2288 50.8836 29.9048 50.2852 31.6525 50.2852H38.242M64.6 50.2852H58.0105C56.2628 50.2852 54.5868 50.8836 53.351 51.949C52.1152 53.0143 51.421 54.4592 51.421 55.9658V58.8061C51.421 60.3126 52.1152 61.7575 53.351 62.8228C54.5868 63.8882 56.2628 64.4867 58.0105 64.4867C59.7581 64.4867 61.4342 65.0851 62.6699 66.1505C63.9057 67.2158 64.6 68.6607 64.6 70.1673V73.0076C64.6 74.5141 63.9057 75.959 62.6699 77.0244C61.4342 78.0897 59.7581 78.6882 58.0105 78.6882H51.421M90.9579 50.2852H84.3684C82.6208 50.2852 80.9447 50.8836 79.709 51.949C78.4732 53.0143 77.779 54.4592 77.779 55.9658V58.8061C77.779 60.3126 78.4732 61.7575 79.709 62.8228C80.9447 63.8882 82.6208 64.4867 84.3684 64.4867C86.1161 64.4867 87.7922 65.0851 89.0279 66.1505C90.2637 67.2158 90.9579 68.6607 90.9579 70.1673V73.0076C90.9579 74.5141 90.2637 75.959 89.0279 77.0244C87.7922 78.0897 86.1161 78.6882 84.3684 78.6882H77.779" stroke="white" stroke-width="4" stroke-linecap="round" stroke-linejoin="round"/>
</svg>
