<svg width="120" height="49" viewBox="0 0 120 49" fill="none" xmlns="http://www.w3.org/2000/svg">
<path d="M24.2653 0C21.2391 0 18.3009 0.559955 15.5128 1.65045L15.5091 1.64096C15.3634 1.69917 15.2188 1.75927 15.075 1.82128C15.0381 1.83457 15.0016 1.84849 14.9653 1.86304V1.86494C5.9925 5.63089 0 14.6519 0 24.5024C0 26.3246 0.2025 28.1411 0.595312 29.9055L0.589688 29.9074C0.608437 29.9899 0.630938 30.0706 0.649688 30.1522C0.714747 30.4318 0.784444 30.7102 0.85875 30.9874C2.21389 35.9337 5.06232 40.3275 9.00562 43.5542C13.3165 47.0634 18.6783 48.9839 24.21 49H24.2597C24.585 49 24.9066 48.9905 25.2263 48.9801C26.0784 48.9424 26.9021 48.6588 27.6003 48.1627C28.2985 47.6667 28.8419 46.9788 29.1666 46.1803L29.6353 45.03L29.6409 45.0319L41.2697 16.4048H37.6191L32.9297 28.4145L28.2169 16.4048H24.3562L30.9712 32.7954L26.8697 42.8642H26.8678L26.0438 44.8763C25.9644 45.0705 25.8326 45.2383 25.6635 45.3603C25.4944 45.4823 25.2948 45.5537 25.0875 45.5662C24.8081 45.5767 24.5297 45.5871 24.2494 45.5871C14.8753 45.5824 6.54656 39.0992 4.1025 30.0402C4.03208 29.7771 3.96675 29.5126 3.90656 29.2468C3.55419 27.6902 3.37619 26.0984 3.37594 24.5014C3.37594 15.9749 8.59219 8.17347 16.3941 4.96558C18.8943 3.94073 21.5669 3.41541 24.2644 3.41858C32.0897 3.41858 39.1987 7.7777 42.8091 14.7933L45.8044 13.2121C41.61 5.05859 33.3572 0 24.2653 0ZM97.7981 16.0926C96.0038 16.0926 94.4888 16.5595 93.2887 17.4858C92.0634 18.4074 91.4428 19.607 91.4428 21.0639C91.4428 23.1689 92.7591 24.7501 94.9716 25.2901C95.5462 25.4239 96.1519 25.5378 96.7369 25.646C98.9381 26.0532 101.018 26.4394 101.018 27.9371C101.018 29.095 99.6909 29.8988 97.7897 29.8988C95.8575 29.8988 94.7897 29.1149 94.53 27.5034L94.4991 27.323L90.9506 28.0766L90.9788 28.2408C91.4981 31.1393 94.0416 32.8676 97.7897 32.8676C99.6909 32.8676 101.324 32.3892 102.631 31.442C103.938 30.511 104.597 29.3066 104.597 27.864C104.607 24.1019 101.303 23.4679 98.6391 22.9639C96.7012 22.5985 95.0278 22.2739 95.0278 20.9101C95.0278 19.8282 96.1678 19.0727 97.7944 19.0727C99.5944 19.0727 100.575 19.8547 100.808 21.4606L100.835 21.6409L104.388 20.8892L104.364 20.725C103.886 17.8683 101.368 16.0926 97.7981 16.0926ZM113.196 16.0926C111.4 16.0926 109.886 16.5595 108.686 17.4858C107.461 18.4074 106.839 19.607 106.839 21.0639C106.839 23.1689 108.157 24.7501 110.369 25.2901C110.954 25.422 111.543 25.5407 112.133 25.646C114.336 26.0532 116.415 26.4394 116.415 27.9371C116.415 29.095 115.088 29.8988 113.186 29.8988C111.255 29.8988 110.186 29.1149 109.927 27.5034L109.897 27.323L106.348 28.0766L106.376 28.2408C106.896 31.1393 109.439 32.8676 113.186 32.8676C115.088 32.8676 116.72 32.3892 118.031 31.442C119.338 30.511 120 29.3066 120 27.864C120.005 24.1019 116.693 23.4679 114.035 22.9639C112.097 22.5985 110.425 22.2739 110.425 20.9101C110.425 19.8282 111.565 19.0727 113.192 19.0727C114.992 19.0727 115.973 19.8547 116.206 21.4606L116.232 21.6409L119.785 20.8892L119.76 20.725C119.282 17.8683 116.766 16.0926 113.196 16.0926ZM80.9269 16.0964C78.5831 16.0964 76.5994 16.904 75.0178 18.5004C73.4212 20.1167 72.6141 22.1354 72.6141 24.5081C72.6141 26.8656 73.4325 28.8795 75.0553 30.4806C76.6819 32.0969 78.6534 32.8827 81.0788 32.8827C84.3638 32.8827 87.1922 31.1953 88.6416 28.3632L88.7222 28.1981L85.7175 26.8504L85.6453 26.9937C84.7763 28.6973 83.1028 29.7185 81.1762 29.7185C78.6741 29.7185 76.7616 28.1734 76.2431 25.7589H89.1337L89.1506 25.6052C89.43 22.9952 88.7634 20.7355 87.1819 18.8819C85.6003 17.0341 83.4947 16.0964 80.9269 16.0964ZM17.0194 16.1011C14.5941 16.1011 12.6206 16.8889 10.9941 18.5061C9.37687 20.1119 8.55281 22.1297 8.55281 24.5138C8.55281 26.8713 9.37125 28.8833 10.9941 30.4835C12.6206 32.1007 14.5941 32.8884 17.0194 32.8884C20.4675 32.8884 23.4009 30.9381 24.6769 27.7985L24.7481 27.6277L21.4528 26.4954L21.3919 26.6454C20.6606 28.4572 19.0228 29.542 17.0194 29.542C15.6572 29.542 14.5022 29.0579 13.5919 28.1117C12.6666 27.1484 12.2044 25.9393 12.2044 24.5185C12.2044 23.0882 12.6609 21.899 13.5919 20.8949C14.5022 19.9269 15.6572 19.4476 17.0194 19.4476C18.9769 19.4476 20.5734 20.5039 21.3919 22.3518L21.4575 22.4941L24.7481 21.3619L24.6769 21.1939C23.4056 18.0534 20.4722 16.1011 17.0194 16.1011ZM51.9178 16.1011C49.7109 16.1011 47.8959 16.8946 46.5178 18.4643V16.4048H42.9619V38.7623H46.5178V30.5214C47.8959 32.0865 49.7109 32.8827 51.9178 32.8827C54.1397 32.8827 56.0363 32.076 57.5522 30.4749C59.0466 28.8691 59.7984 26.8608 59.7984 24.5081C59.7984 22.1249 59.0466 20.1062 57.5522 18.5061C56.0363 16.9097 54.1397 16.1011 51.9178 16.1011ZM70.3162 16.1239C68.5106 16.0764 66.7969 16.868 65.5866 18.3315V16.4048H62.0306V32.5695H65.5866V23.4536C65.5866 21.9921 66.1659 20.874 67.3153 20.1328C68.4544 19.3973 69.8222 19.2568 71.4956 19.72L71.7075 19.7826V16.3242L71.5762 16.2928C71.1632 16.1922 70.7409 16.1356 70.3162 16.1239ZM80.9269 19.2587C83.1591 19.2587 84.9394 20.6681 85.5141 22.8766H76.3453C76.9762 20.6681 78.7556 19.2587 80.9269 19.2587ZM51.3375 19.4476C52.6997 19.4476 53.8547 19.9316 54.765 20.8788C55.68 21.8355 56.1216 23.0199 56.1216 24.5024C56.1216 25.964 55.6753 27.1446 54.765 28.0965C53.8556 29.0494 52.6997 29.5277 51.3375 29.5277C49.9537 29.5277 48.8372 29.0589 47.9109 28.0965C46.9856 27.1342 46.5216 25.9231 46.5216 24.5024C46.5216 23.0408 46.9753 21.8516 47.9109 20.8788C48.8372 19.9107 49.9547 19.4476 51.3375 19.4476Z" fill="white"/>
</svg>
