<svg width="45" height="39" viewBox="0 0 45 39" fill="none" xmlns="http://www.w3.org/2000/svg">
<path d="M43.2692 0H1.73077C1.27174 0 0.831513 0.205446 0.506931 0.571142C0.182348 0.936838 0 1.43283 0 1.95V35.1C0 36.1343 0.364697 37.1263 1.01386 37.8577C1.66303 38.5891 2.54348 39 3.46154 39H41.5385C42.4565 39 43.337 38.5891 43.9861 37.8577C44.6353 37.1263 45 36.1343 45 35.1V1.95C45 1.43283 44.8176 0.936838 44.4931 0.571142C44.1685 0.205446 43.7283 0 43.2692 0Z" fill="#FFEAEA"/>
<path d="M43.2692 0H1.73077C1.27174 0 0.831513 0.205446 0.506931 0.571142C0.182348 0.936838 0 1.43283 0 1.95V35.1C0 36.1343 0.364697 37.1263 1.01386 37.8577C1.66303 38.5891 2.54348 39 3.46154 39H41.5385C42.4565 39 43.337 38.5891 43.9861 37.8577C44.6353 37.1263 45 36.1343 45 35.1V1.95C45 1.43283 44.8176 0.936838 44.4931 0.571142C44.1685 0.205446 43.7283 0 43.2692 0Z" fill="#65009B"/>
<path d="M28.9035 20L40.002 9.06781V30.9322L28.9035 20Z" fill="#FFEAEA"/>
<path d="M28.9035 20L40.002 9.06781V30.9322L28.9035 20Z" fill="#65009B"/>
<path d="M28.9035 20L40.002 9.06781V30.9322L28.9035 20Z" fill="#F7F7F7"/>
<path d="M22.502 21.0461L7.50167 7H37.5022L22.502 21.0461Z" fill="#FFEAEA"/>
<path d="M22.502 21.0461L7.50167 7H37.5022L22.502 21.0461Z" fill="#65009B"/>
<path d="M22.502 21.0461L7.50167 7H37.5022L22.502 21.0461Z" fill="white"/>
<path d="M16.6772 20L5.00195 30.9302V9.06984L16.6772 20Z" fill="#FFEAEA"/>
<path d="M16.6772 20L5.00195 30.9302V9.06984L16.6772 20Z" fill="#65009B"/>
<path d="M16.6772 20L5.00195 30.9302V9.06984L16.6772 20Z" fill="#FFF4F4"/>
<path d="M19.0318 22.2039L21.4181 24.4484C21.7117 24.7236 22.0956 24.8763 22.494 24.8763C22.8924 24.8763 23.2763 24.7236 23.5699 24.4484L25.9562 22.2039L37.4903 33H7.50167L19.0318 22.2039Z" fill="#FFEAEA"/>
<path d="M19.0318 22.2039L21.4181 24.4484C21.7117 24.7236 22.0956 24.8763 22.494 24.8763C22.8924 24.8763 23.2763 24.7236 23.5699 24.4484L25.9562 22.2039L37.4903 33H7.50167L19.0318 22.2039Z" fill="#65009B"/>
<path d="M19.0318 22.2039L21.4181 24.4484C21.7117 24.7236 22.0956 24.8763 22.494 24.8763C22.8924 24.8763 23.2763 24.7236 23.5699 24.4484L25.9562 22.2039L37.4903 33H7.50167L19.0318 22.2039Z" fill="white"/>
</svg>
