<svg width="39" height="39" viewBox="0 0 39 39" fill="none" xmlns="http://www.w3.org/2000/svg">
<path d="M19.5 0C8.73112 0 0 8.76151 0 19.5679C0 28.737 6.292 36.4093 14.7745 38.5324C14.6835 38.2682 14.625 37.9617 14.625 37.5817V34.2372C13.8336 34.2372 12.5076 34.2372 12.1745 34.2372C10.8404 34.2372 9.65412 33.6616 9.07887 32.5919C8.44025 31.4032 8.32975 29.585 6.747 28.4729C6.27737 28.1027 6.63487 27.6804 7.176 27.7374C8.17537 28.0212 9.00413 28.7093 9.78413 29.7301C10.5609 30.7525 10.9265 30.9841 12.3776 30.9841C13.0812 30.9841 14.1342 30.9433 15.1255 30.7868C15.6585 29.4284 16.5799 28.1777 17.706 27.5874C11.2125 26.9172 8.11363 23.6755 8.11363 19.2743C8.11363 17.3795 8.918 15.5467 10.2846 14.0024C9.83613 12.4696 9.27225 9.34365 10.4569 8.15327C13.3786 8.15327 15.145 10.0546 15.5691 10.5683C17.0251 10.0677 18.6241 9.78393 20.3044 9.78393C21.9879 9.78393 23.5934 10.0677 25.0526 10.5715C25.4719 10.0611 27.2399 8.15327 30.1681 8.15327C31.3576 9.34528 30.7873 12.4843 30.3339 14.0138C31.6924 15.5548 32.4919 17.3828 32.4919 19.2743C32.4919 23.6722 29.3979 26.9123 22.9141 27.5858C24.6984 28.5202 26 31.1455 26 33.1235V37.5817C26 37.7513 25.9626 37.8736 25.9431 38.0187C33.5416 35.3461 39 28.106 39 19.5679C39 8.76151 30.2689 0 19.5 0Z" fill="#65009B"/>
<path d="M14.625 37.5817C14.625 37.9617 14.6835 38.2682 14.7745 38.5324C19.415 39.2467 21.8554 39.1933 25.9431 38.0187C25.9626 37.8736 26 37.7513 26 37.5817V33.1235C26 31.1455 24.6984 28.5202 22.9141 27.5858C29.3979 26.9123 32.4919 23.6722 32.4919 19.2743C32.4919 17.3828 31.6924 15.5548 30.3339 14.0138C30.7873 12.4843 31.3576 9.34528 30.1681 8.15327C27.2399 8.15327 25.4719 10.0611 25.0526 10.5715C23.5934 10.0677 21.9879 9.78393 20.3044 9.78393C18.6241 9.78393 17.0251 10.0677 15.5691 10.5683C15.145 10.0546 13.3786 8.15327 10.4569 8.15327C9.27225 9.34365 9.83613 12.4696 10.2846 14.0024C8.918 15.5467 8.11363 17.3795 8.11363 19.2743C8.11363 23.6755 11.2125 26.9172 17.706 27.5874C16.5799 28.1777 15.6585 29.4284 15.1255 30.7868C14.1342 30.9433 13.0812 30.9841 12.3776 30.9841C10.9265 30.9841 10.5609 30.7525 9.78413 29.7301C9.00413 28.7093 8.17537 28.0212 7.176 27.7374C6.63487 27.6804 6.27737 28.1027 6.747 28.4729C8.32975 29.585 8.44025 31.4032 9.07887 32.5919C9.65412 33.6616 10.8404 34.2372 12.1745 34.2372H14.625V37.5817Z" fill="#FDFDFD"/>
</svg>
