<svg width="92" height="96" viewBox="0 0 92 96" fill="none" xmlns="http://www.w3.org/2000/svg">
<path d="M89.6647 10.9581L75.4677 82.4927C75.1924 83.8797 74.5305 85.1606 73.5584 86.1875C72.5863 87.2144 71.3437 87.9455 69.9739 88.2965L49.6333 93.5204C47.1868 94.1485 44.6213 94.1485 42.1749 93.5204L21.8292 88.2965C20.4619 87.9443 19.2219 87.2132 18.2517 86.1873C17.2816 85.1615 16.6208 83.8826 16.3454 82.4977L2.14345 10.9581C1.92769 9.87094 1.95562 8.7495 2.22522 7.67444C2.49481 6.59939 2.99938 5.59748 3.7026 4.7408C4.40582 3.88412 5.29021 3.19399 6.29212 2.72007C7.29402 2.24615 8.38853 2.00022 9.49687 2H82.3113C83.4196 2.00022 84.5141 2.24615 85.516 2.72007C86.5179 3.19399 87.4023 3.88412 88.1055 4.7408C88.8087 5.59748 89.3133 6.59939 89.5829 7.67444C89.8525 8.7495 89.8804 9.87094 89.6647 10.9581Z" stroke="white" stroke-width="4" stroke-linecap="round" stroke-linejoin="round"/>
<path d="M70.8994 21.4009H24.5694C24.1251 21.4003 23.6864 21.4985 23.2847 21.6882C22.8831 21.8779 22.5286 22.1545 22.2468 22.4979C21.9651 22.8414 21.7632 23.2431 21.6556 23.6741C21.5481 24.1051 21.5376 24.5546 21.625 24.9901L25.9191 46.4455H65.8905L61.4364 68.7307C61.2678 69.5734 60.8848 70.3583 60.3244 71.0098C59.764 71.6613 59.0451 72.1573 58.2371 72.4499L47.6094 76.2991C46.5096 76.6974 45.3049 76.6974 44.2051 76.2991L33.5724 72.4499C32.7644 72.1573 32.0455 71.6613 31.4851 71.0098C30.9247 70.3583 30.5417 69.5734 30.3731 68.7307L29.2533 63.1369" stroke="white" stroke-width="4" stroke-linecap="round" stroke-linejoin="round"/>
</svg>
