<svg width="88" height="97" viewBox="0 0 88 97" fill="none" xmlns="http://www.w3.org/2000/svg">
<path d="M86.9047 27.2066L60.6919 1.09125C60.3439 0.744907 59.9308 0.470271 59.4762 0.283031C59.0216 0.0957905 58.5345 -0.000384216 58.0426 1.15355e-06H13.1064C11.1201 1.15355e-06 9.21513 0.786125 7.8106 2.18543C6.40608 3.58474 5.61702 5.48262 5.61702 7.46154V41.0385C5.61702 42.0279 6.01155 42.9769 6.71381 43.6765C7.41608 44.3762 8.36855 44.7692 9.3617 44.7692C10.3549 44.7692 11.3073 44.3762 12.0096 43.6765C12.7119 42.9769 13.1064 42.0279 13.1064 41.0385V7.46154H54.2979V29.8462C54.2979 30.8356 54.6924 31.7845 55.3947 32.4842C56.0969 33.1839 57.0494 33.5769 58.0426 33.5769H80.5106V89.5385H69.2766C68.2834 89.5385 67.331 89.9315 66.6287 90.6312C65.9264 91.3308 65.5319 92.2798 65.5319 93.2692C65.5319 94.2587 65.9264 95.2076 66.6287 95.9073C67.331 96.6069 68.2834 97 69.2766 97H80.5106C82.4969 97 84.4019 96.2139 85.8064 94.8146C87.2109 93.4153 88 91.5174 88 89.5385V29.8462C88.0004 29.3561 87.9039 28.8707 87.7159 28.4178C87.528 27.9649 87.2523 27.5534 86.9047 27.2066ZM61.7872 12.7359L75.2166 26.1154H61.7872V12.7359ZM56.0813 80.3561C55.9353 81.783 55.4739 83.16 54.7301 84.3881C53.9863 85.6161 52.9786 86.6647 51.7796 87.4585C49.3502 89.0721 46.3404 89.5385 43.5928 89.5385C41.1929 89.5248 38.8042 89.2115 36.4826 88.6058C35.526 88.3392 34.7149 87.705 34.2278 86.8427C33.7406 85.9804 33.6172 84.9606 33.8847 84.0076C34.1522 83.0546 34.7888 82.2466 35.6543 81.7612C36.5198 81.2758 37.5435 81.1528 38.5 81.4194C40.5502 81.979 45.5213 82.6785 47.6511 81.2515C48.063 80.9763 48.5077 80.5426 48.6528 79.4187C48.8119 78.1736 48.3204 77.5067 42.6706 75.8792C38.294 74.62 30.9685 72.5075 31.9047 65.1019C32.0507 63.7031 32.5038 62.3535 33.2318 61.1486C33.9599 59.9438 34.945 58.9132 36.1175 58.13C41.6596 54.3993 50.4923 56.5864 51.4847 56.8429C52.4456 57.0946 53.2667 57.7163 53.7675 58.5712C54.2683 59.4261 54.4077 60.4442 54.1551 61.4015C53.9025 62.3588 53.2785 63.1769 52.4204 63.6758C51.5623 64.1748 50.5404 64.3137 49.5796 64.062C47.4779 63.5163 42.4506 62.8681 40.2974 64.3231C40.0152 64.5128 39.7828 64.7673 39.6199 65.0652C39.457 65.363 39.3683 65.6955 39.3613 66.0346C39.3051 66.4543 39.2957 66.5429 39.8809 66.9207C40.9621 67.6155 42.9 68.1705 44.7723 68.7114C49.3783 70.0312 57.1298 72.2837 56.0813 80.3561ZM24.3404 59.6923V77.4135C24.3404 80.6292 23.0582 83.7133 20.7759 85.9871C18.4935 88.261 15.398 89.5385 12.1702 89.5385C8.94247 89.5385 5.84693 88.261 3.56457 85.9871C1.28221 83.7133 0 80.6292 0 77.4135C0 76.424 0.394528 75.4751 1.09679 74.7754C1.79906 74.0758 2.75153 73.6827 3.74468 73.6827C4.73783 73.6827 5.69031 74.0758 6.39257 74.7754C7.09483 75.4751 7.48936 76.424 7.48936 77.4135C7.48936 78.6503 7.98252 79.8365 8.86035 80.711C9.73818 81.5856 10.9288 82.0769 12.1702 82.0769C13.4117 82.0769 14.6022 81.5856 15.4801 80.711C16.3579 79.8365 16.8511 78.6503 16.8511 77.4135V59.6923C16.8511 58.7028 17.2456 57.7539 17.9479 57.0543C18.6501 56.3546 19.6026 55.9615 20.5957 55.9615C21.5889 55.9615 22.5414 56.3546 23.2436 57.0543C23.9459 57.7539 24.3404 58.7028 24.3404 59.6923Z" fill="white"/>
</svg>
