<svg width="86" height="117" viewBox="0 0 86 117" fill="none" xmlns="http://www.w3.org/2000/svg">
<path fill-rule="evenodd" clip-rule="evenodd" d="M27.6961 90.4804C9.76771 95.5062 38.6044 105.889 61.4334 96.0752C57.694 94.6167 55.012 92.9343 55.012 92.9343C44.8324 94.8651 40.1102 95.017 30.8695 93.9578C23.243 93.0814 27.6961 90.4804 27.6961 90.4804ZM58.7 80.6763C45.207 83.281 37.4133 83.1976 27.542 82.1759C19.909 81.3839 24.9058 77.6722 24.9058 77.6722C5.16042 84.2483 35.8981 91.7102 63.4951 83.6109C60.5618 82.5743 58.7 80.6763 58.7 80.6763ZM78.6136 99.9556C78.6136 99.9556 81.9102 102.683 74.9816 104.791C61.808 108.795 20.1406 110.003 8.56731 104.951C4.41029 103.135 12.2096 100.616 14.6637 100.085C17.2223 99.5291 18.6834 99.6304 18.6834 99.6304C14.0574 96.362 -11.222 106.051 5.84609 108.83C52.387 116.4 90.6839 105.421 78.6136 99.9556ZM62.6179 71.5245C64.8552 69.9929 67.9455 68.6629 67.9455 68.6629C67.9455 68.6629 59.1419 70.2422 50.3711 70.9818C39.6338 71.8853 28.1165 72.0634 22.335 71.2873C8.64764 69.4511 29.8391 64.4 29.8391 64.4C29.8391 64.4 21.6073 63.8414 11.4884 68.7529C-0.480051 74.5594 41.093 77.2064 62.6179 71.5245ZM67.8576 85.7199C67.7568 85.9917 67.4205 86.2972 67.4205 86.2972C96.6345 78.5917 85.8935 59.1352 71.925 64.0598C70.6994 64.4947 70.0567 65.5061 70.0567 65.5061C70.0567 65.5061 70.8311 65.193 72.5583 64.8312C79.6197 63.3549 89.7366 74.3157 67.8576 85.7199ZM68.6479 112.692C50.7242 116.077 28.6154 115.683 15.5063 113.511C15.5063 113.511 18.191 115.742 31.9905 116.633C52.9867 117.98 85.2377 115.883 86 105.914C86 105.914 84.5334 109.693 68.6479 112.692Z" fill="#F8F8F8"/>
<path d="M69.2738 23.8993C69.2738 23.8993 29.3562 33.8993 48.4205 55.9428C54.0479 62.443 46.9446 68.287 46.9446 68.287C46.9446 68.287 61.227 60.8908 54.6691 51.6246C48.3224 40.0866 43.7254 37.0926 69.2738 23.8993Z" fill="#F8F8F8"/>
<path d="M43.1761 30.8587C66.7834 12.1624 54.6701 0 54.6701 0C57.9302 12.8893 49.1645 19.7758 40.5981 26.5056C36.327 29.8611 32.1054 33.1776 29.4486 37.1799C24.0109 45.3766 32.1175 54.1844 43.1696 64.1882C42.1923 61.9717 40.685 59.8181 39.1592 57.6379C33.956 50.2031 28.5365 42.4594 43.1761 30.8587Z" fill="#F8F8F8"/>
</svg>
