<svg width="39" height="39" viewBox="0 0 39 39" fill="none" xmlns="http://www.w3.org/2000/svg">
<path d="M35.4545 0H3.54545C1.58659 0 0 1.58659 0 3.54545V35.4545C0 37.4134 1.58659 39 3.54545 39H35.4545C37.4134 39 39 37.4134 39 35.4545V3.54545C39 1.58659 37.4134 0 35.4545 0ZM12.3275 31.9091H7.098V15.0824H12.3275V31.9091ZM9.65959 12.6768C7.97373 12.6768 6.6105 11.31 6.6105 9.62768C6.6105 7.94536 7.9755 6.58036 9.65959 6.58036C11.3401 6.58036 12.7069 7.94714 12.7069 9.62768C12.7069 11.31 11.3401 12.6768 9.65959 12.6768ZM31.9162 31.9091H26.6902V23.7262C26.6902 21.7744 26.6547 19.2642 23.9726 19.2642C21.2515 19.2642 20.8331 21.3897 20.8331 23.5844V31.9091H15.6071V15.0824H20.6239V17.3816H20.6948C21.3933 16.0591 23.0986 14.664 25.6425 14.664C30.9376 14.664 31.9162 18.1492 31.9162 22.6803V31.9091Z" fill="#65009B"/>
<path d="M12.3275 31.9091H7.098V15.0824H12.3275V31.9091Z" fill="#FDFDFD"/>
<path d="M31.9162 31.9091H26.6902V23.7262C26.6902 21.7744 26.6547 19.2642 23.9726 19.2642C21.2515 19.2642 20.8331 21.3897 20.8331 23.5844V31.9091H15.6071V15.0824H20.6239V17.3816H20.6948C21.3933 16.0591 23.0986 14.664 25.6425 14.664C30.9376 14.664 31.9162 18.1492 31.9162 22.6803V31.9091Z" fill="#FDFDFD"/>
<path d="M9.65959 12.6768C7.97373 12.6768 6.6105 11.31 6.6105 9.62768C6.6105 7.94536 7.9755 6.58036 9.65959 6.58036C11.3401 6.58036 12.7069 7.94714 12.7069 9.62768C12.7069 11.31 11.3401 12.6768 9.65959 12.6768Z" fill="#FDFDFD"/>
</svg>
