<svg width="120" height="33" viewBox="0 0 120 33" fill="none" xmlns="http://www.w3.org/2000/svg">
<path fill-rule="evenodd" clip-rule="evenodd" d="M56.83 13.2C55.3476 13.1998 53.9072 12.7136 52.7351 11.8176C51.563 10.9216 50.7257 9.66672 50.3546 8.25H42.6923C41.9009 8.25011 41.1353 8.5273 40.5315 9.03226C39.9278 9.53722 39.525 10.2372 39.395 11.0077L39.1203 12.6355C38.8693 14.133 38.1007 15.4985 36.9453 16.5C38.1 17.5018 38.8679 18.8673 39.1184 20.3645L39.3931 21.9923C39.5232 22.7628 39.9259 23.4628 40.5296 23.9677C41.1334 24.4727 41.899 24.7499 42.6904 24.75H43.6682C44.0751 23.1946 45.0426 21.8391 46.3896 20.9375C47.7365 20.0359 49.3703 19.6502 50.9848 19.8526C52.5992 20.055 54.0835 20.8317 55.1593 22.037C56.2351 23.2423 56.8287 24.7936 56.8287 26.4C56.8287 28.0064 56.2351 29.5576 55.1593 30.763C54.0835 31.9683 52.5992 32.745 50.9848 32.9474C49.3703 33.1498 47.7365 32.7641 46.3896 31.8625C45.0426 30.9609 44.0751 29.6054 43.6682 28.05H42.6904C41.1074 28.0504 39.5757 27.4962 38.3679 26.4862C37.1602 25.4762 36.3547 24.0759 36.0949 22.5346L35.8202 20.9077C35.6902 20.1372 35.2875 19.4372 34.6837 18.9323C34.08 18.4273 33.3143 18.1501 32.523 18.15H29.8745C29.5032 19.5666 28.6656 20.8212 27.4935 21.717C26.3213 22.6127 24.881 23.0987 23.3986 23.0987C21.9162 23.0987 20.4759 22.6127 19.3037 21.717C18.1316 20.8212 17.294 19.5666 16.9227 18.15H13.1604C12.7536 19.7054 11.786 21.0609 10.4391 21.9625C9.09213 22.8641 7.45832 23.2498 5.84387 23.0474C4.22942 22.845 2.74518 22.0683 1.66936 20.863C0.593537 19.6576 0 18.1064 0 16.5C0 14.8936 0.593537 13.3423 1.66936 12.137C2.74518 10.9317 4.22942 10.155 5.84387 9.9526C7.45832 9.75019 9.09213 10.1359 10.4391 11.0375C11.786 11.9391 12.7536 13.2946 13.1604 14.85H16.9246C17.2959 13.4334 18.1334 12.1788 19.3056 11.283C20.4777 10.3873 21.9181 9.90126 23.4005 9.90126C24.8828 9.90126 26.3232 10.3873 27.4954 11.283C28.6675 12.1788 29.505 13.4334 29.8764 14.85H32.5249C34.159 14.85 35.5531 13.684 35.8221 12.0923L36.0968 10.4654C36.3566 8.9241 37.162 7.5238 38.3698 6.51379C39.5776 5.50379 41.1093 4.94964 42.6923 4.95H50.3555C50.6682 3.75483 51.3141 2.67016 52.2199 1.81917C53.1258 0.968183 54.2552 0.384994 55.48 0.135845C56.7048 -0.113304 57.9758 -0.0184282 59.1487 0.409696C60.3216 0.837819 61.3493 1.58203 62.1152 2.55781C62.8811 3.53358 63.3544 4.7018 63.4814 5.92978C63.6084 7.15776 63.384 8.39629 62.8336 9.50468C62.2832 10.6131 61.429 11.5469 60.3679 12.2001C59.3069 12.8533 58.0806 13.1997 56.83 13.2ZM56.831 9.9C57.27 9.9 57.7047 9.81464 58.1104 9.6488C58.516 9.48296 58.8845 9.23988 59.195 8.93345C59.5054 8.62702 59.7517 8.26323 59.9197 7.86285C60.0877 7.46248 60.1742 7.03336 60.1742 6.6C60.1742 6.16664 60.0877 5.73752 59.9197 5.33714C59.7517 4.93677 59.5054 4.57298 59.195 4.26655C58.8845 3.96011 58.516 3.71704 58.1104 3.5512C57.7047 3.38536 57.27 3.3 56.831 3.3C55.9443 3.3 55.0939 3.64768 54.467 4.26655C53.84 4.88542 53.4878 5.72478 53.4878 6.6C53.4878 7.47521 53.84 8.31458 54.467 8.93345C55.0939 9.55232 55.9443 9.9 56.831 9.9ZM6.685 19.8C7.57167 19.8 8.42202 19.4523 9.04899 18.8334C9.67596 18.2146 10.0282 17.3752 10.0282 16.5C10.0282 15.6248 9.67596 14.7854 9.04899 14.1665C8.42202 13.5477 7.57167 13.2 6.685 13.2C5.79833 13.2 4.94798 13.5477 4.32101 14.1665C3.69404 14.7854 3.34181 15.6248 3.34181 16.5C3.34181 17.3752 3.69404 18.2146 4.32101 18.8334C4.94798 19.4523 5.79833 19.8 6.685 19.8ZM26.7423 16.5C26.7497 16.9379 26.6687 17.373 26.5041 17.7797C26.3394 18.1865 26.0944 18.5568 25.7832 18.8691C25.4721 19.1814 25.1011 19.4294 24.6918 19.5987C24.2826 19.7681 23.8433 19.8553 23.3995 19.8553C22.9558 19.8553 22.5165 19.7681 22.1072 19.5987C21.698 19.4294 21.327 19.1814 21.0158 18.8691C20.7047 18.5568 20.4597 18.1865 20.295 17.7797C20.1304 17.373 20.0494 16.9379 20.0568 16.5C20.0715 15.6345 20.4301 14.8093 21.0554 14.2023C21.6807 13.5954 22.5226 13.2553 23.3995 13.2553C24.2765 13.2553 25.1184 13.5954 25.7437 14.2023C26.3689 14.8093 26.7276 15.6345 26.7423 16.5ZM53.4878 26.4C53.4878 27.2752 53.1356 28.1146 52.5086 28.7334C51.8816 29.3523 51.0313 29.7 50.1446 29.7C49.2579 29.7 48.4076 29.3523 47.7806 28.7334C47.1536 28.1146 46.8014 27.2752 46.8014 26.4C46.8014 25.5248 47.1536 24.6854 47.7806 24.0665C48.4076 23.4477 49.2579 23.1 50.1446 23.1C51.0313 23.1 51.8816 23.4477 52.5086 24.0665C53.1356 24.6854 53.4878 25.5248 53.4878 26.4ZM100.296 14.2698V14.1124C101.462 13.535 102.629 12.5393 102.629 10.5737C102.629 7.74288 100.269 6.0392 97.0083 6.0392C93.6679 6.0392 91.2819 7.84745 91.2819 10.6264C91.2819 12.5133 92.3957 13.535 93.6154 14.1115V14.2688C92.735 14.5846 91.976 15.1632 91.4439 15.9242C90.9118 16.6852 90.633 17.591 90.6463 18.5155C90.6463 21.3723 93.0323 23.3647 96.9821 23.3647C100.932 23.3647 103.238 21.3723 103.238 18.5155C103.238 16.1557 101.648 14.7686 100.296 14.2698ZM96.9821 8.44988C98.3077 8.44988 99.2883 9.2883 99.2883 10.7032C99.2883 12.1191 98.2805 12.9575 96.9821 12.9575C95.6836 12.9575 94.5961 12.1191 94.5961 10.7032C94.5961 9.26239 95.6302 8.44988 96.9821 8.44988ZM96.9821 20.8466C95.4445 20.8466 94.1976 19.8768 94.1976 18.2259C94.1976 16.7323 95.2317 15.6051 96.9549 15.6051C98.6518 15.6051 99.6859 16.7064 99.6859 18.2786C99.6859 19.8768 98.4933 20.8466 96.9821 20.8466ZM107.329 23.1018H110.721V15.9993C110.721 13.6664 112.153 12.6438 113.77 12.6438C115.36 12.6438 116.607 13.6923 116.607 15.842V23.1018H120V15.16C120 11.7267 117.984 9.73527 114.831 9.73527C112.843 9.73527 111.728 10.5219 110.933 11.5435H110.721L110.43 9.99716H107.329V23.1018ZM77.2904 23.1018H73.8966V9.99716H76.9989L77.2895 11.5426H77.5023C78.2973 10.5209 79.4111 9.73527 81.3996 9.73527C84.5543 9.73527 86.569 11.7267 86.569 15.16V23.1018H83.1752V15.842C83.1752 13.6923 81.9293 12.6438 80.3392 12.6438C78.722 12.6438 77.2904 13.6664 77.2904 15.9993V23.1018Z" fill="white"/>
</svg>
