<svg width="91" height="91" viewBox="0 0 91 91" fill="none" xmlns="http://www.w3.org/2000/svg">
<path d="M65.3748 0C61.734 0.0340706 58.1137 0.548672 54.6077 1.53046L54.3595 1.60492C52.152 1.2264 49.9187 1.01759 47.6792 0.980324C43.0754 0.901733 39.1168 1.98547 35.9318 3.79307C32.7881 2.73415 26.2691 0.910006 19.3985 1.27401C14.6127 1.52633 9.39253 2.93684 5.52498 6.8995C1.66571 10.8622 -0.373545 16.9923 0.0566421 25.3354C0.172462 27.6394 0.846697 31.3911 1.9718 36.2555C3.08863 41.1157 4.66875 46.8032 6.63354 51.9944C8.59834 57.1856 10.7534 61.8556 14.1205 65.024C15.7998 66.6124 18.1121 67.9485 20.838 67.8368C22.7532 67.7623 24.4863 66.9475 25.9796 65.7438C26.7076 66.6745 27.4852 67.0798 28.1925 67.4562C29.0819 67.9278 29.9505 68.2504 30.8481 68.4655C33.3338 69.1029 35.9227 69.2309 38.4591 68.8419C39.5635 68.6641 40.7259 68.3166 41.8841 67.8202C41.9254 69.0694 41.9751 70.2938 42.0289 71.5347C42.186 75.4643 42.2894 79.0919 43.5056 82.2728C43.7 82.794 44.2336 85.4702 46.3473 87.8321C48.4568 90.1981 52.5933 91.6707 57.3005 90.6945C60.622 90.0037 64.8495 88.7586 67.6539 84.887C70.4253 81.0567 71.6787 75.5636 71.9269 66.6496C71.9889 66.1698 72.0634 65.7603 72.142 65.3756L72.8038 65.4335H72.8782C76.4231 65.5907 80.27 65.1026 83.484 63.6549C86.3299 62.3726 88.4808 61.0821 90.0485 58.7864C90.4415 58.2197 90.8716 57.533 90.9875 56.3459C91.1033 55.167 90.4084 53.3139 89.246 52.4618C86.9172 50.7494 85.4571 51.3988 83.8894 51.7173C82.3451 52.0482 80.7788 52.2316 79.1904 52.2674C83.7115 44.8881 86.9503 37.0455 88.7993 30.1046C89.8913 26.0096 90.5076 22.2331 90.5573 18.9323C90.6069 15.6314 90.3298 12.707 88.2905 10.1755C81.9163 2.27501 72.9527 0.0910003 66.0201 0.0165453C65.805 0.0110302 65.5899 0.00965166 65.3748 0.0124093V0ZM65.1928 2.42806C71.749 2.36601 80.1294 4.15293 86.1437 11.6108C87.4963 13.2861 87.8976 15.7348 87.8521 18.7544C87.8024 21.7698 87.2275 25.3767 86.1768 29.3311C84.1376 36.9917 80.2824 45.9181 74.8513 53.9344C75.0441 54.068 75.2525 54.1778 75.4718 54.2612C76.6051 54.7162 79.1863 55.105 84.3444 54.0792C85.6391 53.8103 86.5905 53.6324 87.5749 54.3604C87.8105 54.556 87.9977 54.8033 88.1218 55.0831C88.2459 55.363 88.3037 55.6678 88.2905 55.9736C88.2358 56.4356 88.0603 56.875 87.7817 57.2476C86.789 58.6995 84.8201 60.0769 82.2969 61.2103C80.0673 62.2196 76.8657 62.7449 74.0282 62.778C72.6052 62.7904 71.294 62.6828 70.1813 62.3478L70.1068 62.323C69.6766 66.3394 68.688 74.2771 68.0469 77.8965C67.5298 80.8168 66.6281 83.1373 64.9032 84.8746C63.1825 86.6119 60.7503 87.6584 57.4742 88.3409C53.4164 89.1847 50.4589 88.2747 48.552 86.7153C46.6492 85.1641 45.7764 83.1001 45.2511 81.8343C44.8913 80.9657 44.7051 79.8364 44.5231 78.3267C44.323 76.5191 44.1891 74.7047 44.1219 72.8873C44.0031 69.701 43.9645 66.5122 44.0061 63.324C42.3101 64.8255 40.2006 65.8265 37.9379 66.2029C35.2493 66.6455 32.8419 66.2112 31.4065 65.8637C30.7029 65.6903 30.0224 65.4334 29.3797 65.0985C28.7096 64.7552 28.0767 64.3664 27.6548 63.597C27.4062 63.1578 27.3268 62.6429 27.4314 62.1492C27.5669 61.6477 27.867 61.2063 28.2835 60.8959C29.0612 60.2837 30.0829 59.9446 31.6258 59.6302C34.4385 59.0718 35.4189 58.6871 36.0145 58.228C36.5233 57.835 37.0982 57.0408 38.1158 55.8702L38.1034 55.7172C36.2899 55.6639 34.5122 55.2 32.9039 54.3604C32.3207 54.9561 29.3259 58.0294 25.6735 62.2899C24.1389 64.0727 22.4429 65.0944 20.6519 65.1688C18.8608 65.2433 17.2434 64.3664 15.8702 63.0758C13.1194 60.4864 10.9271 56.0315 9.01612 50.9975C7.11337 45.9594 5.55807 40.3505 4.45779 35.5729C3.34923 30.7954 2.69567 26.9444 2.60467 25.0872C2.19103 17.1908 4.09378 11.8714 7.36155 8.51683C10.6293 5.16221 15.1049 3.88821 19.473 3.6483C27.3073 3.20984 34.7488 5.86126 36.2544 6.43209C39.154 4.52107 42.8892 3.32979 47.5592 3.40425C49.7727 3.43503 51.9759 3.7125 54.1279 4.23153L54.2065 4.19844C55.1551 3.8758 56.1175 3.60555 57.0937 3.3877C59.7512 2.78786 62.4644 2.46898 65.1886 2.43633L65.1928 2.42806ZM65.7843 4.9678H65.2176C62.9796 4.99795 60.7496 5.24172 58.558 5.69581C62.9084 7.5906 66.7307 10.5184 69.6932 14.225C71.4879 16.4426 72.9765 18.8911 74.1192 21.5051C74.5493 22.5061 74.8389 23.3541 75.0002 24.0076C75.0829 24.3385 75.1409 24.6157 75.1574 24.9052C75.1727 25.0885 75.1573 25.273 75.1119 25.4512L75.0871 25.5008C75.207 28.8224 74.3591 31.0726 74.2557 34.241C74.1771 36.5409 74.781 39.2419 74.9299 42.1829C75.0705 44.9543 74.7272 47.9945 72.8741 50.981C73.0285 51.163 73.1774 51.345 73.3208 51.527C78.2225 44.0401 81.7591 35.7508 83.6412 28.69C84.6463 24.8845 85.1841 21.4389 85.2296 18.7089C85.2709 15.9789 84.7456 13.9975 84.0755 13.1744C78.8305 6.66786 71.7366 5.0133 65.7843 4.9678ZM47.067 5.93572C42.4466 5.94399 39.1292 7.30073 36.6184 9.32756C34.0249 11.4247 32.2876 14.2912 31.1459 17.2322C30.0409 20.1712 29.3652 23.2542 29.1398 26.386L29.1936 26.3571C30.5875 25.596 32.42 24.839 34.3806 24.4006C36.3454 23.9621 38.4591 23.8256 40.3743 24.5453C42.2894 25.2651 43.8737 26.961 44.4487 29.5338C47.1994 41.8851 43.5924 46.4765 42.2605 49.9386C41.7608 51.1951 41.33 52.4779 40.9699 53.7813C41.1354 53.7345 41.3022 53.7014 41.4704 53.6821C42.1971 53.6427 42.922 53.7849 43.58 54.0957C44.9202 54.6334 45.8385 55.7585 46.3349 57.0491C46.4645 57.391 46.5568 57.7495 46.612 58.1245C46.6672 58.2817 46.6933 58.443 46.6906 58.6085C46.5419 63.3314 46.5585 68.058 46.7402 72.7798C46.8312 74.8231 46.9636 76.6183 47.1332 78.0371C47.2986 79.4518 47.5386 80.5272 47.6916 80.8912C48.188 82.1073 48.9201 83.6957 50.2438 84.7753C51.5674 85.8549 53.4578 86.5705 56.9199 85.8508C59.923 85.2262 61.7761 84.3617 63.017 83.1083C64.2497 81.8633 64.9901 80.1301 65.4616 77.4704C66.169 73.4871 67.5919 61.9424 67.7615 59.7667C67.687 58.1328 67.9352 56.8712 68.473 55.9116C69.0314 54.9271 69.8917 54.3232 70.6322 53.9964C71.0044 53.831 71.3519 53.7234 71.6373 53.6448C71.3332 53.2241 71.0159 52.813 70.6859 52.4122C69.6163 51.1609 68.7393 49.757 68.0841 48.2468C67.7685 47.6256 67.4332 47.0145 67.079 46.4144C66.5619 45.5044 65.9042 44.3669 65.2176 43.0888C63.8402 40.5283 62.3428 37.4261 61.5651 34.4024C60.7916 31.3869 60.6758 28.2639 62.6613 26.0593C64.4234 24.1027 67.5092 23.292 72.1461 23.747C72.0096 23.3499 71.9269 23.019 71.6952 22.4895C70.6488 20.0863 69.281 17.8362 67.6291 15.801C63.6995 10.9283 57.3419 6.09704 47.5137 5.93986H47.067V5.93572ZM21.1069 6.13013C20.6105 6.13013 20.1141 6.14392 19.6178 6.17149C15.6716 6.39072 11.9406 7.50341 9.27258 10.25C6.59631 12.9924 4.83834 17.4928 5.21889 24.9466C5.29748 26.3529 5.93035 30.3073 7.01409 34.998C8.09783 39.6969 9.63658 45.219 11.4814 50.0958C13.3263 54.9767 15.5682 59.2248 17.6943 61.2351C18.7656 62.2402 19.6963 62.6456 20.5402 62.6125C21.3881 62.5712 22.4057 62.0996 23.6549 60.6477C25.9299 57.9855 28.2888 55.3962 30.7282 52.8837C29.0046 51.4385 27.6778 49.5778 26.873 47.4775C26.0748 45.3971 25.8324 43.1446 26.1698 40.942C26.5711 38.1375 26.6248 35.515 26.5793 33.4468C26.5297 31.4283 26.3808 30.0881 26.3808 29.2484V29.1326C26.3765 24.761 27.1598 20.4244 28.693 16.3305C29.7851 13.5094 31.4148 10.6429 33.8594 8.32242C31.4603 7.55718 27.1998 6.39072 22.5877 6.17149C22.0918 6.14494 21.5952 6.13114 21.0986 6.13013H21.1069ZM69.5608 26.1585C66.9094 26.1916 65.4203 26.8576 64.6385 27.7262C63.5299 28.9589 63.4265 31.1181 64.1132 33.7819C64.7998 36.4457 66.2103 39.4281 67.5423 41.9016C68.2041 43.1425 68.8494 44.2594 69.3706 45.1611C69.8959 46.0711 70.2806 46.7164 70.5122 47.2707C70.7328 47.7698 70.9645 48.2262 71.2071 48.6398C72.233 46.5344 72.4191 44.4703 72.3115 42.3153C72.175 39.6514 71.538 36.9255 71.6332 34.1666C71.7366 30.9402 72.3943 28.8348 72.4522 26.3405C71.4928 26.2236 70.5273 26.1628 69.5608 26.1585ZM37.3795 26.5928C36.5692 26.599 35.762 26.6933 34.9721 26.8741C33.4017 27.2444 31.8861 27.8172 30.4634 28.5783C29.9864 28.8265 29.5314 29.1147 29.0984 29.4428L29.0157 29.5173C29.0405 30.0715 29.1522 31.4159 29.2018 33.3889C29.2432 35.5523 29.1936 38.3112 28.7634 41.2894C27.8285 47.7753 32.6764 53.1443 38.3764 53.1526C38.7073 51.8207 39.2575 50.4722 39.8035 49.0493C41.3918 44.9005 44.5148 41.8768 41.8841 30.0674C41.4539 28.1357 40.6018 27.3539 39.427 26.9113C38.7692 26.6829 38.0756 26.575 37.3795 26.5928ZM68.3199 27.3664H68.5185C68.7777 27.3746 69.0121 27.4022 69.2216 27.4491C69.4119 27.4873 69.5939 27.5587 69.7594 27.66C69.8347 27.7044 69.8998 27.7642 69.9504 27.8355C70.001 27.9068 70.036 27.9879 70.0531 28.0737V28.1068C70.0639 28.2886 70.0145 28.4688 69.9124 28.6197C69.797 28.8283 69.6521 29.0191 69.4822 29.1864C69.0814 29.6117 68.5528 29.8949 67.9766 29.993C67.4117 30.0599 66.8417 29.9203 66.3717 29.6C66.1824 29.475 66.0113 29.3247 65.8629 29.1533C65.7374 29.0193 65.6515 28.8533 65.6147 28.6735C65.6057 28.585 65.6158 28.4956 65.6443 28.4114C65.6729 28.3272 65.7192 28.2501 65.7802 28.1854C65.9124 28.0465 66.0677 27.9318 66.2393 27.8462C66.8945 27.5454 67.6034 27.3794 68.324 27.3581L68.3199 27.3664ZM37.7601 28.0034C37.9669 28.0034 38.1834 28.0199 38.4095 28.053C39.0051 28.1357 39.5387 28.2888 39.9441 28.5163C40.1426 28.6183 40.3164 28.752 40.4653 28.9175C40.5425 29.0085 40.6004 29.1091 40.639 29.2195C40.6776 29.3298 40.69 29.4442 40.6762 29.5628C40.6386 29.7821 40.5364 29.9852 40.3826 30.146C40.2225 30.3387 40.0343 30.506 39.8241 30.6424C39.3105 30.9922 38.6872 31.1436 38.0703 31.0684C37.4444 30.9674 36.8689 30.6637 36.4323 30.2039C36.2508 30.0188 36.095 29.8101 35.969 29.5835C35.8402 29.3851 35.7832 29.1486 35.8077 28.9134C35.8656 28.4997 36.2172 28.2929 36.5522 28.1688C36.9396 28.0459 37.3462 27.9955 37.7518 28.0199L37.7601 28.0034ZM73.1678 55.8495H73.1554C72.5804 56.0563 72.1089 56.1391 71.7076 56.3045C71.3079 56.4528 70.9767 56.7428 70.7769 57.1194C70.5287 57.5537 70.3219 58.3272 70.384 59.6426C70.5622 59.7602 70.7575 59.8495 70.9631 59.9073C71.629 60.1059 72.75 60.2382 74.0033 60.2176C76.4935 60.1886 79.5627 59.6261 81.1924 58.8898C82.5285 58.2859 83.7694 57.4999 84.878 56.5569C79.4303 57.6489 76.357 57.3593 74.4666 56.6024C74.0004 56.4121 73.5631 56.1614 73.1678 55.8495ZM41.7807 56.2011H41.6979C41.4911 56.2177 41.1892 56.2838 40.6101 56.9126C39.245 58.3934 38.7735 59.32 37.6484 60.1886C36.5316 61.0572 35.0714 61.5164 32.1594 62.0955C31.2369 62.2775 30.7116 62.4802 30.3559 62.6415C30.4717 62.7325 30.4593 62.7573 30.6289 62.8442C31.0549 63.0717 31.6051 63.2702 32.0435 63.3819C33.2969 63.6838 35.3527 64.0396 37.4995 63.6838C39.6463 63.3281 41.8758 62.3312 43.7786 59.7419C44.1095 59.2951 44.1426 58.6333 43.8737 57.9219C43.5966 57.2187 43.0009 56.6065 42.579 56.4328C42.3273 56.3141 42.0574 56.2386 41.7807 56.2094V56.2011Z" fill="white"/>
</svg>
