<svg width="100" height="99" viewBox="0 0 100 99" fill="none" xmlns="http://www.w3.org/2000/svg">
<path d="M98.1728 36.7723C96.3908 30.0651 93.139 24.7933 86.3183 24.7933H77.2325V35.3368C77.2325 43.4796 70.0846 50.3452 62.4534 50.3452H38.2463C31.5917 50.3452 26.3918 55.9387 26.3918 62.4826V85.0051C26.3918 91.2272 32.0799 95.0635 38.2463 97.1376C45.7213 99.375 53.0253 99.8551 62.2823 97.1376C68.2926 95.3803 74.1418 92.0292 74.1418 85.0002V76.0555H50.2668V73.1845H86.3183C93.139 73.1845 95.9025 68.3929 98.1728 61.2055C100.609 53.3796 100.609 46.1922 98.1728 36.7723ZM63.7421 81.4856C66.1834 81.4856 68.2926 83.5647 68.2926 85.9604C68.2926 88.3562 66.1784 90.4303 63.7471 90.4303C61.3108 90.5887 59.1966 88.3513 59.1966 85.9604C59.0355 83.5647 61.1447 81.4856 63.7471 81.4856M37.1187 47.3109H61.1547C67.8093 47.3109 73.0092 41.8807 73.0092 35.1735V12.9727C73.0092 6.74561 67.4872 1.95401 61.1497 0.835312C53.1964 -0.278437 44.4226 -0.278437 37.1187 0.835312C26.8851 2.59256 25.2592 6.26546 25.2592 12.9727V21.9174H49.2953V24.7884H16.4855C9.66475 24.7884 3.49341 29.1048 1.70643 36.7674C-0.568811 45.712 -0.568811 51.3006 1.70643 60.567C3.49341 67.596 7.39454 72.546 14.5374 72.546H22.3346V61.8441C22.1685 54.0181 29.1553 47.3109 37.1137 47.3109M35.6539 15.8487C34.4555 15.8247 33.313 15.3462 32.465 14.5132C31.617 13.6802 31.1291 12.5572 31.1034 11.3788C31.1034 8.98301 33.2176 6.90401 35.6488 6.90401C38.0801 6.90401 40.1993 8.98301 40.1993 11.3788C40.1993 13.7746 38.0902 15.8487 35.6539 15.8487Z" fill="white"/>
</svg>
