<svg width="120" height="107" viewBox="0 0 120 107" fill="none" xmlns="http://www.w3.org/2000/svg">
<path d="M60 42.7768C54.1012 42.7768 49.2975 47.591 49.2975 53.5026C49.2975 59.4142 54.1012 64.2284 60 64.2284C65.8988 64.2284 70.7025 59.4142 70.7025 53.5026C70.7025 47.591 65.8988 42.7768 60 42.7768ZM30.0375 74.8189L27.675 74.2326C10.095 69.7679 0 62.214 0 53.4838C0 44.7536 10.0988 37.1997 27.675 32.735L30.0375 32.1487L30.7013 34.4975C32.4843 40.6498 34.7644 46.6464 37.5187 52.4277L38.025 53.4838L37.5187 54.5586C34.7582 60.3373 32.4779 66.3344 30.7013 72.4888L30.0375 74.8189ZM26.5838 38.2144C13.2225 41.9725 5.02125 47.7451 5.02125 53.4838C5.02125 59.2225 13.2263 64.9725 26.5838 68.7532C28.2183 63.5382 30.1951 58.4373 32.5013 53.4838C30.1951 48.5302 28.2183 43.4293 26.5838 38.2144ZM89.9625 74.8189L89.2988 72.47C87.5211 66.322 85.2409 60.3312 82.4813 54.5586L81.975 53.4838L82.4813 52.4089C85.2418 46.6302 87.5221 40.6332 89.2988 34.4787L89.9625 32.1487L92.325 32.735C109.905 37.1997 120 44.7536 120 53.4838C120 62.214 109.901 69.7679 92.325 74.2326L89.9625 74.8189ZM87.4987 53.4838C89.81 58.4351 91.7869 63.5364 93.4162 68.7532C106.796 64.9762 114.979 59.2225 114.979 53.4838C114.979 47.7451 106.774 41.9951 93.4162 38.2144C91.7717 43.4258 89.7951 48.526 87.4987 53.4838ZM26.5425 38.1956L25.8787 35.8467C20.9363 18.3863 22.44 5.86034 30 1.49335C37.4212 -2.79471 49.3162 2.27505 61.7962 15.1167L63.495 16.8605L61.7962 18.6043C57.3648 23.2258 53.3153 28.2005 49.6875 33.4791L49.005 34.4374L47.8312 34.5351C41.4505 35.0397 35.1211 36.0615 28.905 37.5905L26.5425 38.1956ZM36.0338 4.98093C34.6875 4.98093 33.495 5.25527 32.4975 5.84155C27.5363 8.7203 26.6588 18.702 30.075 32.1675C35.4047 30.9688 40.8078 30.1252 46.2487 29.642C49.3825 25.1724 52.8074 20.9151 56.5013 16.8981C48.7088 9.28402 41.325 4.98093 36.0338 4.98093ZM83.985 106.996C83.965 106.996 83.965 106.996 83.985 106.996C76.8562 106.996 67.695 101.633 58.2038 91.8471L56.505 90.1033L58.2038 88.3595C62.6352 83.7379 66.6847 78.7633 70.3125 73.4847L70.9762 72.5264L72.15 72.4099C78.5388 71.9215 84.8758 70.8995 91.095 69.3545L93.4575 68.7682L94.1213 71.1171C99.0638 88.5775 97.56 101.085 90 105.448C88.1718 106.5 86.0927 107.037 83.985 106.996ZM63.495 90.0657C71.2875 97.6798 78.6712 101.987 83.9625 101.987H83.9813C85.3088 101.987 86.5013 101.693 87.4987 101.126C92.46 98.2472 93.36 88.2656 89.9212 74.8001C84.5911 75.9924 79.188 76.8298 73.7475 77.3068C70.6145 81.7828 67.1895 86.0426 63.495 90.0657ZM93.4575 38.1956L91.095 37.5905C84.8715 36.0669 78.5363 35.0451 72.15 34.5351L70.9762 34.4374L70.3125 33.4791C66.6847 28.2005 62.6352 23.2258 58.2038 18.6043L56.505 16.8605L58.2038 15.1167C70.6837 2.27505 82.5788 -2.79471 90 1.49335C97.56 5.85658 99.0638 18.3863 94.1213 35.8467L93.4575 38.1956ZM73.7513 29.642C79.1922 30.1252 84.5953 30.9688 89.925 32.1675C93.3637 18.702 92.4637 8.71654 87.5025 5.84155C82.56 2.98534 73.2638 7.36736 63.4988 16.9018C67.1845 20.9258 70.6091 25.1825 73.7513 29.6457V29.642ZM36.0338 106.996C33.9225 107.034 31.8337 106.508 30 105.452C22.44 101.088 20.9363 88.5775 25.8787 71.1208L26.5425 68.772L28.905 69.3582C34.6875 70.8277 41.055 71.8424 47.8312 72.4136L49.005 72.5301L49.6688 73.4885C53.2965 78.7671 57.3461 83.7417 61.7775 88.3633L63.4762 90.1071L61.7775 91.8509C52.305 101.637 43.1437 107 36.0338 107V106.996ZM30.0788 74.8001C26.64 88.2656 27.54 98.251 32.5013 101.126C37.4437 103.945 46.7212 99.6002 56.505 90.0657C52.8105 86.0426 49.3855 81.7791 46.2525 77.303C40.8113 76.8316 35.4079 75.9979 30.0788 74.8001ZM60 77.9494C55.8787 77.9494 51.66 77.7728 47.4225 77.4195L46.2487 77.3218L45.5662 76.3447C43.1729 72.8979 40.9246 69.3521 38.8275 65.7166C36.7265 62.0807 34.7786 58.3581 32.9888 54.5586L32.4825 53.4838L32.9888 52.4089C36.5739 44.8114 40.7808 37.5244 45.5662 30.6229L46.2487 29.6457L47.4225 29.548C55.7927 28.8422 64.2073 28.8422 72.5775 29.548L73.7513 29.6457L74.4338 30.6229C79.2266 37.5198 83.4338 44.8073 87.0112 52.4089L87.5175 53.4838L87.0112 54.5586C83.4401 62.1635 79.2326 69.4516 74.4338 76.3447L73.7513 77.3218L72.5775 77.4195C68.394 77.7681 64.198 77.9449 60 77.9494ZM49.0238 72.5076C56.4075 73.0751 63.5925 73.0751 70.995 72.5076C75.1238 66.4493 78.7928 60.0889 81.9712 53.48C78.8063 46.8602 75.1301 40.4983 70.9762 34.4524C63.6696 33.8867 56.3304 33.8867 49.0238 34.4524C44.8633 40.4942 41.1868 46.8566 38.0287 53.48C41.2081 60.0922 44.8837 66.453 49.0238 72.5076Z" fill="white"/>
</svg>
